<?xml version="1.0" standalone="no"?><!DOCTYPE svg PUBLIC "-//W3C//DTD SVG 1.1//EN" "http://www.w3.org/Graphics/SVG/1.1/DTD/svg11.dtd"><svg t="1582250548670" class="icon" viewBox="0 0 1024 1024" version="1.1" xmlns="http://www.w3.org/2000/svg" p-id="1993" xmlns:xlink="http://www.w3.org/1999/xlink" width="200" height="200"><defs><style type="text/css"></style></defs><path d="M896 592H680.708l-9-39.164A32 32 0 0 0 640.524 528H448v176h80l66.84 256H96a32 32 0 0 1-32-32V96a32 32 0 0 1 32-32h385.08c17.672 0 30.88 14.328 30.88 32l0.388 288H864a32 32 0 0 1 32 32v176zM192 192v64h192v-64H192z m0 192v64h192v-64H192z m0 192v64h192v-64H192z m384 64h-64v-64h86.692a32 32 0 0 1 30.988 24.004L640 640h341.544a32 32 0 0 1 30.76 40.816l-61.352 192A32 32 0 0 1 920.192 896H669.184a32 32 0 0 1-31.04-24.22L576 640z m152 360c-22.092 0-40-17.908-40-40s17.908-40 40-40 40 17.908 40 40-17.908 40-40 40z m144 0c-22.092 0-40-17.908-40-40s17.908-40 40-40 40 17.908 40 40-17.908 40-40 40z" fill="#1afa29" p-id="1994"></path></svg>